<svg width="198" height="59" viewBox="0 0 198 59" fill="none" xmlns="http://www.w3.org/2000/svg">
<path d="M83.3376 41.7288H65.7114V16.9821H83.2028V21.5072H70.4129V26.9868H82.613V31.5119H70.4129V37.2037H83.3376V41.7288ZM99.6331 28.7014H93.7184V34.9588C93.7184 35.9604 93.9433 36.697 94.3925 37.1683C94.8422 37.6397 95.432 37.8754 96.1618 37.8754C97.0381 37.8754 98.0607 37.5042 99.2287 36.7618L100.846 40.3677C99.195 41.5697 97.3919 42.1707 95.4372 42.1707C93.4151 42.1707 91.8874 41.5933 90.8537 40.4384C89.8316 39.2718 89.3203 37.569 89.3203 35.33V28.7014H86.1691V24.6005H89.3203V19.5098H93.7184V24.6005H99.6331V28.7014ZM110.567 24.141C112.915 24.141 114.825 24.9777 116.297 26.651C117.769 28.3125 118.504 30.4749 118.504 33.1381C118.504 33.7274 118.476 34.2458 118.42 34.6936H106.843C107.057 35.8839 107.534 36.7735 108.276 37.3627C109.029 37.952 109.95 38.2466 111.039 38.2466C112.556 38.2466 113.932 37.6986 115.168 36.6027L117.746 39.5723C115.926 41.3045 113.606 42.1707 110.786 42.1707C108.281 42.1707 106.242 41.3458 104.67 39.696C103.097 38.0462 102.31 35.8839 102.31 33.2088C102.31 30.5221 103.074 28.342 104.602 26.6687C106.13 24.9835 108.119 24.141 110.567 24.141ZM110.534 28.1181C109.512 28.1181 108.692 28.4186 108.073 29.0196C107.467 29.6088 107.062 30.4514 106.86 31.5473H114.089C113.887 30.4396 113.483 29.5911 112.876 29.0019C112.269 28.4127 111.489 28.1181 110.534 28.1181ZM130.945 24.141C131.821 24.141 132.585 24.2647 133.237 24.5122L132.58 29.0903C131.793 28.725 130.906 28.5423 129.917 28.5423C128.872 28.5423 128.036 28.8782 127.406 29.5499C126.789 30.2098 126.48 31.1584 126.48 32.3957V41.7288H122.081V24.6005H126.345V26.4742C127.334 24.9187 128.867 24.141 130.945 24.141ZM145.316 24.141C147.182 24.141 148.703 24.7596 149.883 25.997C151.074 27.2343 151.669 28.8428 151.669 30.8226V41.7288H147.271V32.3074C147.271 31.07 146.996 30.1214 146.445 29.4615C145.895 28.8016 145.109 28.4716 144.086 28.4716C143.087 28.4716 142.261 28.8075 141.609 29.4792C140.958 30.1391 140.632 31.0936 140.632 32.3427V41.7288H136.234V24.6005H140.514V26.6156C141.57 24.9658 143.171 24.141 145.316 24.141ZM160.544 41.7288H156.146V24.6005H160.544V41.7288ZM156.331 16.8937C156.87 16.3163 157.533 16.0276 158.32 16.0276C159.106 16.0276 159.769 16.3163 160.308 16.8937C160.858 17.4711 161.134 18.1723 161.134 18.9972C161.134 19.8221 160.858 20.5173 160.308 21.083C159.769 21.6486 159.106 21.9314 158.32 21.9314C157.533 21.9314 156.87 21.6486 156.331 21.083C155.792 20.5173 155.522 19.8221 155.522 18.9972C155.522 18.1605 155.792 17.4594 156.331 16.8937ZM177.01 28.7014H171.095V34.9588C171.095 35.9604 171.32 36.697 171.769 37.1683C172.219 37.6397 172.808 37.8754 173.539 37.8754C174.415 37.8754 175.437 37.5042 176.606 36.7618L178.223 40.3677C176.572 41.5697 174.769 42.1707 172.814 42.1707C170.792 42.1707 169.264 41.5933 168.231 40.4384C167.209 39.2718 166.697 37.569 166.697 35.33V28.7014H163.546V24.6005H166.697V19.5098H171.095V24.6005H177.01V28.7014ZM185.023 48.8699H180.203L185.916 38.0875L178.872 24.6005H183.86L188.342 33.4033L192.69 24.6005H197.509L185.023 48.8699Z" fill="white"/>
<path d="M24.4358 2.10288C26.3713 1.26193 28.5459 1.26193 30.4814 2.10288L43.652 7.82548C45.5875 8.66643 47.1252 10.2794 47.9269 12.3097L53.3824 26.1251C54.1839 28.1554 54.1839 30.4365 53.3824 32.4668L47.9269 46.2823C47.1252 48.3125 45.5875 49.9255 43.652 50.7665L30.4814 56.489C28.5459 57.3298 26.3713 57.3298 24.4358 56.489L11.2652 50.7665C9.32972 49.9255 7.79201 48.3125 6.99032 46.2823L1.53486 32.4668C0.73317 30.4365 0.73317 28.1554 1.53486 26.1251L6.99032 12.3097C7.79201 10.2794 9.32972 8.66643 11.2652 7.82548L24.4358 2.10288Z" fill="#AE91EC"/>
<path d="M16.9986 19.7988C16.5648 18.8565 17.5067 17.8685 18.405 18.3235L26.8402 22.5962C27.1167 22.7363 27.4377 22.7428 27.7191 22.614L36.0957 18.7821C36.9731 18.3807 37.8648 19.316 37.4821 20.2364L33.829 29.0231C33.7063 29.3183 33.7125 29.6551 33.846 29.9451L37.9193 38.7933C38.353 39.7356 37.4111 40.7236 36.5129 40.2686L28.0778 35.9958C27.8012 35.8558 27.4802 35.8493 27.1988 35.978L18.8222 39.81C17.9447 40.2114 17.0531 39.2761 17.4358 38.3557L21.0889 29.5689C21.2116 29.2737 21.2054 28.937 21.0719 28.6469L16.9986 19.7988Z" fill="white"/>
</svg>
