<svg width="46" height="46" viewBox="0 0 46 46" fill="none" xmlns="http://www.w3.org/2000/svg">
<path d="M36.2491 32.203H33.1168C31.9308 32.203 31.5643 31.26 29.4339 29.1009C27.5781 27.304 26.7573 27.0625 26.3016 27.0625C25.6619 27.0625 25.4793 27.245 25.4793 28.1277V30.9567C25.4793 31.7185 25.2364 32.1742 23.2282 32.1742C19.1773 31.9025 15.6957 29.6931 13.6746 26.4731L13.6444 26.4228C11.2984 23.509 9.56909 19.9972 8.71377 16.1562L8.68215 15.988C8.68215 15.5323 8.86471 15.1054 9.74734 15.1054H12.8796C13.6703 15.1054 13.975 15.4705 14.2812 16.3215C15.8308 20.795 18.4183 24.7194 19.4835 24.7194C19.8788 24.7194 20.0614 24.5368 20.0614 23.5334V18.9061C19.9392 16.7757 18.8136 16.5946 18.8136 15.8342C18.8266 15.4274 19.1601 15.1025 19.5683 15.1025C19.5813 15.1025 19.5928 15.1025 19.6057 15.1039H19.6043H24.5335C25.2033 15.1039 25.4463 15.469 25.4463 16.2597V22.4984C25.4463 23.1669 25.751 23.4112 25.9336 23.4112C26.3289 23.4112 26.6653 23.1669 27.3941 22.438C28.9092 20.588 30.2044 18.472 31.192 16.1907L31.2581 16.0182C31.4665 15.4964 31.9668 15.1341 32.5518 15.1341C32.5792 15.1341 32.605 15.1355 32.6323 15.137H32.628H35.7603C36.7033 15.137 36.9175 15.6214 36.7033 16.2927C35.447 19.0599 34.0353 21.4375 32.3995 23.6398L32.4742 23.5334C32.1407 24.0811 32.0185 24.324 32.4742 24.935C32.8077 25.3907 33.9045 26.3337 34.6348 27.1861C35.6913 28.2312 36.5768 29.4473 37.2453 30.7899L37.2812 30.869C37.586 31.7487 37.1288 32.2059 36.2462 32.2059L36.2491 32.203ZM29.6179 1.44336H16.3828C4.30352 1.44336 1.44434 4.30255 1.44434 16.3819V29.6169C1.44434 41.6962 4.30352 44.5554 16.3828 44.5554H29.6179C41.6972 44.5554 44.5564 41.6962 44.5564 29.6169V16.3819C44.5564 4.30255 41.6656 1.44336 29.6179 1.44336Z" fill="white"/>
</svg>
